<?xml version="1.0" encoding="utf-8"?>
<!-- Generator: Adobe Illustrator 15.0.0, SVG Export Plug-In . SVG Version: 6.00 Build 0)  -->
<!DOCTYPE svg PUBLIC "-//W3C//DTD SVG 1.1//EN" "http://www.w3.org/Graphics/SVG/1.1/DTD/svg11.dtd">
<svg version="1.1" id="Layer_1" xmlns="http://www.w3.org/2000/svg" xmlns:xlink="http://www.w3.org/1999/xlink" x="0px" y="0px"
	 width="464.977px" height="467.977px" viewBox="0 0 464.977 467.977" enable-background="new 0 0 464.977 467.977"
	 xml:space="preserve">
<g>
	<defs>
		<rect id="SVGID_1_" x="-17.602" y="-25.102" width="500" height="500"/>
	</defs>
	<clipPath id="SVGID_2_">
		<use xlink:href="#SVGID_1_"  overflow="visible"/>
	</clipPath>
	<g display="none" clip-path="url(#SVGID_2_)">
		<defs>
			<rect id="SVGID_3_" x="-17.602" y="-25.102" width="500" height="500"/>
		</defs>
		<clipPath id="SVGID_4_" display="inline">
			<use xlink:href="#SVGID_3_"  display="none" overflow="visible"/>
		</clipPath>
		<path display="inline" clip-path="url(#SVGID_4_)" fill="#5AE3A6" d="M453.587,237.556
			c-10.692,39.894-36.083,84.394-76.248,100.695c-60.688,24.636-63.329,75.709-175.673,81.753
			c-17.516,0.944-33.877,0.035-49.066-2.462c-8.165-1.342-15.994-3.153-23.474-5.389C61.222,391.937,21.541,336.927,12.872,276.225
			C1.457,196.389,53.75,152.807,87.97,126.944C122.192,101.08,157.716,10.16,268.113,3.351c16.831-1.031,33.79-0.341,50.431,2.503
			c37.985,6.475,77.746,25.035,102.721,55.343c1.875,2.277,3.68,4.618,5.423,7.013C460.711,115.066,468.167,183.169,453.587,237.556
			"/>
		<g opacity="0.7" clip-path="url(#SVGID_4_)">
			<g display="inline">
				<defs>
					<rect id="SVGID_5_" x="11.273" y="2.898" width="449.393" height="417.471"/>
				</defs>
				<clipPath id="SVGID_6_">
					<use xlink:href="#SVGID_5_"  overflow="visible"/>
				</clipPath>
				<path clip-path="url(#SVGID_6_)" fill="#FFFFFF" d="M453.587,237.556c-10.692,39.894-36.083,84.394-76.248,100.695
					c-60.688,24.636-63.329,75.709-175.673,81.753c-17.516,0.944-33.877,0.035-49.066-2.462c-8.165-1.342-15.994-3.153-23.474-5.389
					C61.222,391.937,21.541,336.927,12.872,276.225C1.457,196.389,53.75,152.807,87.97,126.944
					C122.192,101.08,157.716,10.16,268.113,3.351c16.831-1.031,33.79-0.341,50.431,2.503c37.985,6.475,77.746,25.035,102.721,55.343
					c1.875,2.277,3.68,4.618,5.423,7.013C460.711,115.066,468.167,183.169,453.587,237.556"/>
			</g>
		</g>
	</g>
	<g clip-path="url(#SVGID_2_)">
		<defs>
			<rect id="SVGID_7_" x="-17.602" y="-25.102" width="500" height="500"/>
		</defs>
		<clipPath id="SVGID_8_">
			<use xlink:href="#SVGID_7_"  overflow="visible"/>
		</clipPath>
		<g opacity="0.3" clip-path="url(#SVGID_8_)">
			<g>
				<defs>
					<rect id="SVGID_9_" x="38.213" y="64.315" width="34.995" height="53.192"/>
				</defs>
				<clipPath id="SVGID_10_">
					<use xlink:href="#SVGID_9_"  overflow="visible"/>
				</clipPath>
				<path clip-path="url(#SVGID_10_)" fill="none" stroke="#000000" stroke-miterlimit="10" d="M70.758,85.627v-5.666
					c0-11.187-7.442-15.146-15.047-15.146c-7.754,0-14.88,5.701-14.88,15.146v5.666h-2.117v31.38h33.995v-31.38H70.758z
					 M56.715,102.873v5.685h-3.22v-5.685c-1.572-0.637-2.683-2.174-2.683-3.975c0-2.371,1.922-4.292,4.293-4.292
					s4.293,1.921,4.293,4.292C59.398,100.699,58.287,102.235,56.715,102.873z M66.047,85.627H45.375v-5.666
					c0-5.699,4.636-10.336,10.336-10.336c5.699,0,10.336,3.899,10.336,10.336V85.627z"/>
			</g>
		</g>
		<g opacity="0.3" clip-path="url(#SVGID_8_)">
			<g>
				<defs>
					<rect id="SVGID_11_" x="80.368" y="26.025" width="124.304" height="27.95"/>
				</defs>
				<clipPath id="SVGID_12_">
					<use xlink:href="#SVGID_11_"  overflow="visible"/>
				</clipPath>
				<path clip-path="url(#SVGID_12_)" fill="none" stroke="#000000" stroke-miterlimit="10" d="M190.697,53.476H94.343
					c-7.442,0-13.475-6.033-13.475-13.475s6.033-13.475,13.475-13.475h96.354c7.442,0,13.475,6.033,13.475,13.475
					S198.139,53.476,190.697,53.476z"/>
			</g>
		</g>
		<g opacity="0.3" clip-path="url(#SVGID_8_)">
			<g>
				<defs>
					<rect id="SVGID_13_" x="101.126" y="33.79" width="82.788" height="9.066"/>
				</defs>
				<clipPath id="SVGID_14_">
					<use xlink:href="#SVGID_13_"  overflow="visible"/>
				</clipPath>
				<polygon clip-path="url(#SVGID_14_)" points="106.507,38.747 109.316,41.849 107.965,42.855 105.87,39.17 103.802,42.855 
					102.451,41.849 105.235,38.747 101.125,37.898 101.629,36.281 105.5,37.978 105.022,33.79 106.718,33.79 106.269,37.978 
					110.139,36.309 110.642,37.925 				"/>
				<polygon clip-path="url(#SVGID_14_)" points="116.974,38.747 119.783,41.849 118.432,42.855 116.337,39.17 114.269,42.855 
					112.918,41.849 115.702,38.747 111.593,37.898 112.096,36.281 115.966,37.978 115.489,33.79 117.185,33.79 116.735,37.978 
					120.606,36.309 121.109,37.925 				"/>
				<polygon clip-path="url(#SVGID_14_)" points="127.442,38.747 130.252,41.849 128.9,42.855 126.805,39.17 124.737,42.855 
					123.386,41.849 126.17,38.747 122.062,37.898 122.564,36.281 126.435,37.978 125.958,33.79 127.653,33.79 127.203,37.978 
					131.074,36.309 131.577,37.925 				"/>
				<polygon clip-path="url(#SVGID_14_)" points="137.909,38.747 140.719,41.849 139.367,42.855 137.272,39.17 135.204,42.855 
					133.853,41.849 136.637,38.747 132.528,37.898 133.031,36.281 136.901,37.978 136.424,33.79 138.12,33.79 137.67,37.978 
					141.541,36.309 142.044,37.925 				"/>
				<polygon clip-path="url(#SVGID_14_)" points="148.377,38.747 151.188,41.849 149.835,42.855 147.74,39.17 145.672,42.855 
					144.321,41.849 147.105,38.747 142.997,37.898 143.5,36.281 147.37,37.978 146.893,33.79 148.588,33.79 148.139,37.978 
					152.009,36.309 152.512,37.925 				"/>
				<polygon clip-path="url(#SVGID_14_)" points="158.844,38.747 161.654,41.849 160.302,42.855 158.207,39.17 156.14,42.855 
					154.788,41.849 157.572,38.747 153.463,37.898 153.966,36.281 157.836,37.978 157.359,33.79 159.055,33.79 158.605,37.978 
					162.476,36.309 162.979,37.925 				"/>
				<polygon clip-path="url(#SVGID_14_)" points="169.313,38.747 172.123,41.849 170.771,42.855 168.675,39.17 166.607,42.855 
					165.256,41.849 168.041,38.747 163.932,37.898 164.435,36.281 168.305,37.978 167.828,33.79 169.523,33.79 169.074,37.978 
					172.944,36.309 173.448,37.925 				"/>
				<polygon clip-path="url(#SVGID_14_)" points="179.779,38.747 182.589,41.849 181.237,42.855 179.142,39.17 177.075,42.855 
					175.723,41.849 178.507,38.747 174.398,37.898 174.901,36.281 178.771,37.978 178.294,33.79 179.99,33.79 179.54,37.978 
					183.411,36.309 183.914,37.925 				"/>
			</g>
		</g>
		<g opacity="0.3" clip-path="url(#SVGID_8_)">
			<g>
				<defs>
					<rect id="SVGID_15_" x="40.287" y="188.39" width="30.689" height="29.373"/>
				</defs>
				<clipPath id="SVGID_16_">
					<use xlink:href="#SVGID_15_"  overflow="visible"/>
				</clipPath>
				<path clip-path="url(#SVGID_16_)" fill="none" stroke="#000000" stroke-miterlimit="10" d="M66.104,210.341
					c-0.889-1.537-2.134-2.409-3.438-2.409h-2.268v-2.033c1.62-1.906,2.666-4.801,2.666-7.774c0-5.1-3.069-9.235-6.855-9.235
					s-6.855,4.135-6.855,9.235c0,2.857,0.963,5.648,2.476,7.552v2.255h-3.032c-1.337,0-2.613,0.872-3.525,2.409l-4.107,6.922h13.9
					h1.524h13.52L66.104,210.341z"/>
			</g>
		</g>
		<g opacity="0.3" clip-path="url(#SVGID_8_)">
			<g>
				<defs>
					<rect id="SVGID_17_" x="33.81" y="183.058" width="44.036" height="44.036"/>
				</defs>
				<clipPath id="SVGID_18_">
					<use xlink:href="#SVGID_17_"  overflow="visible"/>
				</clipPath>
				
					<circle clip-path="url(#SVGID_18_)" fill="none" stroke="#000000" stroke-miterlimit="10" cx="55.828" cy="205.076" r="21.518"/>
			</g>
		</g>
	</g>
	<g clip-path="url(#SVGID_2_)">
		<defs>
			<rect id="SVGID_19_" x="-17.602" y="-25.102" width="500" height="500"/>
		</defs>
		<clipPath id="SVGID_20_">
			<use xlink:href="#SVGID_19_"  overflow="visible"/>
		</clipPath>
		<g opacity="0.2" clip-path="url(#SVGID_20_)">
			<g>
				<defs>
					<rect id="SVGID_21_" x="139.97" y="49.649" width="271.713" height="282.599"/>
				</defs>
				<clipPath id="SVGID_22_">
					<use xlink:href="#SVGID_21_"  overflow="visible"/>
				</clipPath>
				<path clip-path="url(#SVGID_22_)" d="M216.725,298.646c-37.254-20.806-62.505-60.629-62.505-106.244
					c0-67.054,54.552-121.607,121.606-121.607c8.373,0,16.544,0.869,24.445,2.49l-3.104,10.402l34.555-8.224l-24.399-25.814
					l-2.962,9.927c-9.205-1.977-18.748-3.031-28.535-3.031c-74.913,0-135.856,60.945-135.856,135.857
					c0,52.477,29.909,98.094,73.573,120.715l-8.594-14.242L216.725,298.646z"/>
				<path clip-path="url(#SVGID_22_)" d="M325.958,66.134l10.675,11.293l-13.11,3.12c43.414,18.582,73.909,61.722,73.909,111.855
					c0,67.054-54.553,121.605-121.605,121.605c-12.239,0-24.058-1.826-35.207-5.207l4.223-7.652l-35.514,0.688l18.353,30.412
					l5.915-10.72c13.299,4.361,27.492,6.729,42.23,6.729c74.911,0,135.856-60.945,135.856-135.856
					C411.683,135.188,376.13,86.124,325.958,66.134"/>
			</g>
		</g>
	</g>
	<g clip-path="url(#SVGID_2_)">
		<defs>
			<rect id="SVGID_23_" x="-17.602" y="-25.102" width="500" height="500"/>
		</defs>
		<clipPath id="SVGID_24_">
			<use xlink:href="#SVGID_23_"  overflow="visible"/>
		</clipPath>
		<path clip-path="url(#SVGID_24_)" fill="#008DFF" d="M436.426,44.127l-22.899-4.37l-0.038,0.078
			c-1.144,2.312-3.007,3.598-4.734,3.268l-0.994-0.19c-1.728-0.329-2.986-2.211-3.198-4.781l-0.007-0.087l-22.9-4.37
			c-6.377-1.217-12.533,2.967-13.751,9.344l-29.702,150.71c-0.698,3.659,1.702,7.192,5.361,7.891l64.613,12.33
			c3.66,0.698,7.192-1.702,7.892-5.362l29.702-150.71C446.988,51.501,442.804,45.344,436.426,44.127"/>
		
			<path clip-path="url(#SVGID_24_)" fill="none" stroke="#1A2E35" stroke-linecap="round" stroke-linejoin="round" stroke-miterlimit="10" d="
			M436.426,44.127l-22.899-4.37l-0.038,0.078c-1.144,2.312-3.007,3.598-4.734,3.268l-0.994-0.19
			c-1.728-0.329-2.986-2.211-3.198-4.781l-0.007-0.087l-22.9-4.37c-6.377-1.217-12.533,2.967-13.751,9.344l-29.702,150.71
			c-0.698,3.659,1.702,7.192,5.361,7.891l64.613,12.33c3.66,0.698,7.192-1.702,7.892-5.362l29.702-150.71
			C446.988,51.501,442.804,45.344,436.426,44.127z"/>
		<path clip-path="url(#SVGID_24_)" fill="#FFFFFF" d="M445.128,61.243l0.642-3.365c1.218-6.378-2.966-12.534-9.344-13.751
			l-22.899-4.37l-0.038,0.078c-1.144,2.311-3.007,3.597-4.734,3.268l-0.994-0.19c-1.728-0.33-2.985-2.212-3.198-4.781l-0.007-0.087
			l-22.899-4.37c-6.378-1.217-12.534,2.966-13.752,9.344l-0.642,3.365L445.128,61.243z"/>
		
			<path clip-path="url(#SVGID_24_)" fill="none" stroke="#1A2E35" stroke-linecap="round" stroke-linejoin="round" stroke-miterlimit="10" d="
			M445.128,61.243l0.642-3.365c1.218-6.378-2.966-12.534-9.344-13.751l-22.899-4.37l-0.038,0.078
			c-1.144,2.311-3.007,3.597-4.734,3.268l-0.994-0.19c-1.728-0.33-2.985-2.212-3.198-4.781l-0.007-0.087l-22.899-4.37
			c-6.378-1.217-12.534,2.966-13.752,9.344l-0.642,3.365L445.128,61.243z"/>
		<path clip-path="url(#SVGID_24_)" fill="#717171" d="M440.109,109.503l2.793-14.634l-1.324-0.252l8.326-38.685
			c1.217-6.378-2.967-12.535-9.345-13.752L378.53,30.343c-6.377-1.217-12.534,2.967-13.751,9.344l-30.534,155.065
			c-1.217,6.377,2.966,12.534,9.345,13.751l62.028,11.837c6.378,1.217,12.535-2.966,13.752-9.344l17.036-89.274l1.323,0.253
			l1.649-8.647l-1.323-0.253l0.73-3.825L440.109,109.503z M417.314,202.055c-1.217,6.377-7.374,10.561-13.751,9.344l-54.771-10.452
			c-6.378-1.217-10.562-7.374-9.345-13.751l28.456-144.177c1.218-6.377,7.374-10.561,13.752-9.344l22.899,4.37l0.007,0.087
			c0.212,2.57,1.471,4.452,3.198,4.781l0.993,0.19c1.729,0.33,3.592-0.956,4.735-3.267l0.038-0.079l22.899,4.37
			c6.378,1.217,10.562,7.374,9.344,13.752L417.314,202.055z"/>
		
			<path clip-path="url(#SVGID_24_)" fill="none" stroke="#1A2E35" stroke-linecap="round" stroke-linejoin="round" stroke-miterlimit="10" d="
			M440.109,109.503l2.793-14.634l-1.324-0.252l8.326-38.685c1.217-6.378-2.967-12.535-9.345-13.752L378.53,30.343
			c-6.377-1.217-12.534,2.967-13.751,9.344l-30.534,155.065c-1.217,6.377,2.966,12.534,9.345,13.751l62.028,11.837
			c6.378,1.217,12.535-2.966,13.752-9.344l17.036-89.274l1.323,0.253l1.649-8.647l-1.323-0.253l0.73-3.825L440.109,109.503z
			 M417.314,202.055c-1.217,6.377-7.374,10.561-13.751,9.344l-54.771-10.452c-6.378-1.217-10.562-7.374-9.345-13.751l28.456-144.177
			c1.218-6.377,7.374-10.561,13.752-9.344l22.899,4.37l0.007,0.087c0.212,2.57,1.471,4.452,3.198,4.781l0.993,0.19
			c1.729,0.33,3.592-0.956,4.735-3.267l0.038-0.079l22.899,4.37c6.378,1.217,10.562,7.374,9.344,13.752L417.314,202.055z"/>
		<path clip-path="url(#SVGID_24_)" fill="#1A2E35" d="M438.232,43.385L380.25,32.32c-6.757-1.289-13.279,3.143-14.568,9.9
			l-29.665,150.51c-1.289,6.757,3.143,13.279,9.899,14.569l57.982,11.064c6.757,1.29,13.279-3.142,14.569-9.899l29.665-150.511
			C449.421,51.197,444.989,44.674,438.232,43.385 M417.314,202.055c-1.217,6.377-7.374,10.561-13.751,9.344l-54.771-10.452
			c-6.378-1.217-10.562-7.374-9.345-13.751l28.456-144.177c1.218-6.377,7.374-10.561,13.752-9.344l22.899,4.37l0.007,0.087
			c0.212,2.57,1.471,4.452,3.198,4.781l0.993,0.19c1.729,0.33,3.592-0.956,4.735-3.267l0.038-0.079l22.899,4.37
			c6.378,1.217,10.562,7.374,9.344,13.752L417.314,202.055z"/>
		
			<path clip-path="url(#SVGID_24_)" fill="none" stroke="#1A2E35" stroke-linecap="round" stroke-linejoin="round" stroke-miterlimit="10" d="
			M438.232,43.385L380.25,32.32c-6.757-1.289-13.279,3.143-14.568,9.9l-29.665,150.51c-1.289,6.757,3.143,13.279,9.899,14.569
			l57.982,11.064c6.757,1.29,13.279-3.142,14.569-9.899l29.665-150.511C449.421,51.197,444.989,44.674,438.232,43.385z
			 M417.314,202.055c-1.217,6.377-7.374,10.561-13.751,9.344l-54.771-10.452c-6.378-1.217-10.562-7.374-9.345-13.751l28.456-144.177
			c1.218-6.377,7.374-10.561,13.752-9.344l22.899,4.37l0.007,0.087c0.212,2.57,1.471,4.452,3.198,4.781l0.993,0.19
			c1.729,0.33,3.592-0.956,4.735-3.267l0.038-0.079l22.899,4.37c6.378,1.217,10.562,7.374,9.344,13.752L417.314,202.055z"/>
		<path clip-path="url(#SVGID_24_)" fill="#717171" d="M409.782,39.616c0.114-0.599-0.278-1.177-0.877-1.291
			c-0.6-0.114-1.177,0.278-1.291,0.877s0.278,1.177,0.877,1.291C409.089,40.608,409.667,40.215,409.782,39.616"/>
		<path clip-path="url(#SVGID_24_)" fill="#1A2E35" d="M376.129,37.5c-0.21,1.097-1.517,1.257-1.682,2.093l-0.011,0.057l1.195,0.228
			l-0.07,0.369l-1.596-0.304l0.059-0.312c0.226-1.175,1.5-1.169,1.696-2.193c0.071-0.374-0.017-0.595-0.317-0.652
			c-0.296-0.057-0.467,0.131-0.528,0.453l-0.062,0.323l-0.38-0.073l0.057-0.296c0.106-0.556,0.432-0.877,0.992-0.77
			C376.05,36.532,376.234,36.943,376.129,37.5"/>
		<path clip-path="url(#SVGID_24_)" fill="#1A2E35" d="M378.122,37.875l-0.018,0.094c-0.071,0.374-0.272,0.61-0.586,0.664
			c0.286,0.173,0.368,0.474,0.299,0.838l-0.054,0.28c-0.105,0.557-0.436,0.871-0.997,0.764c-0.556-0.106-0.747-0.52-0.64-1.076
			l0.048-0.25l0.379,0.073l-0.053,0.275c-0.063,0.328,0.035,0.551,0.326,0.607c0.296,0.056,0.463-0.111,0.533-0.48l0.054-0.281
			c0.068-0.359-0.05-0.559-0.354-0.628l-0.218-0.041l0.069-0.364l0.239,0.045c0.271,0.042,0.472-0.098,0.531-0.415l0.032-0.167
			c0.071-0.374-0.022-0.591-0.319-0.647c-0.29-0.056-0.464,0.121-0.526,0.448l-0.036,0.187l-0.379-0.072l0.032-0.166
			c0.105-0.557,0.434-0.866,0.99-0.76C378.037,36.911,378.228,37.318,378.122,37.875"/>
		<path clip-path="url(#SVGID_24_)" fill="#1A2E35" d="M378.855,38.3l-0.097,0.504l-0.39-0.074l0.096-0.505L378.855,38.3z
			 M378.477,40.28l-0.097,0.504l-0.39-0.074l0.096-0.504L378.477,40.28z"/>
		<path clip-path="url(#SVGID_24_)" fill="#1A2E35" d="M379.614,38.784c0.151-0.176,0.354-0.245,0.598-0.198
			c0.468,0.089,0.61,0.472,0.511,0.991l-0.136,0.713c-0.106,0.556-0.44,0.869-0.996,0.763c-0.557-0.106-0.748-0.519-0.641-1.076
			l0.047-0.244l0.379,0.072l-0.052,0.271c-0.063,0.327,0.035,0.55,0.326,0.606s0.464-0.116,0.525-0.444l0.136-0.706
			c0.063-0.328-0.034-0.552-0.326-0.607c-0.224-0.043-0.397,0.053-0.484,0.312l-0.017,0.083l-0.379-0.073l0.484-2.003l1.435,0.274
			l-0.069,0.364l-1.07-0.205L379.614,38.784z"/>
		<path clip-path="url(#SVGID_24_)" fill="#1A2E35" d="M382.968,38.794l-0.013,0.068l-0.379-0.073l0.018-0.093
			c0.063-0.328-0.036-0.546-0.332-0.602c-0.308-0.059-0.48,0.113-0.555,0.503l-0.155,0.816c0.146-0.231,0.37-0.334,0.661-0.278
			c0.468,0.089,0.612,0.467,0.512,0.992l-0.105,0.551c-0.105,0.556-0.451,0.867-1.007,0.761c-0.562-0.107-0.768-0.523-0.662-1.08
			l0.354-1.856c0.11-0.576,0.438-0.885,1.016-0.775C382.882,37.835,383.075,38.238,382.968,38.794 M381.456,39.917l-0.104,0.545
			c-0.062,0.328,0.035,0.552,0.332,0.608c0.291,0.055,0.469-0.115,0.531-0.443l0.104-0.545c0.063-0.328-0.04-0.552-0.331-0.608
			C381.691,39.418,381.517,39.589,381.456,39.917"/>
		
			<rect x="421.379" y="46.413" transform="matrix(0.9823 0.1872 -0.1872 0.9823 16.3942 -78.1444)" clip-path="url(#SVGID_24_)" fill="#1A2E35" width="1.046" height="2.616"/>
		
			<rect x="422.798" y="46.156" transform="matrix(0.9823 0.1872 -0.1872 0.9823 16.4201 -78.41)" clip-path="url(#SVGID_24_)" fill="#1A2E35" width="1.046" height="3.139"/>
		
			<rect x="424.203" y="46.048" transform="matrix(0.9823 0.1874 -0.1874 0.9823 16.4818 -78.743)" clip-path="url(#SVGID_24_)" fill="#1A2E35" width="1.045" height="3.51"/>
		
			<rect x="425.633" y="45.668" transform="matrix(0.9823 0.1872 -0.1872 0.9823 16.4745 -78.9404)" clip-path="url(#SVGID_24_)" fill="#1A2E35" width="1.046" height="4.158"/>
		<path clip-path="url(#SVGID_24_)" fill="#1A2E35" d="M439.007,52.243l-6.164-1.177l0.719-3.767l6.164,1.177L439.007,52.243z
			 M433.25,50.789l5.479,1.046l0.589-3.083l-5.479-1.045L433.25,50.789z"/>
		
			<rect x="434.029" y="48.467" transform="matrix(0.9823 0.1875 -0.1875 0.9823 17.0365 -80.8067)" clip-path="url(#SVGID_24_)" fill="#1A2E35" width="3.313" height="2.379"/>
		
			<rect x="439.146" y="49.94" transform="matrix(0.9823 0.1874 -0.1874 0.9823 17.2339 -81.4878)" clip-path="url(#SVGID_24_)" fill="#1A2E35" width="0.789" height="0.904"/>
		<path clip-path="url(#SVGID_24_)" fill="#1A2E35" d="M430.739,49.815c-0.04-0.007-0.078-0.026-0.111-0.055
			c-1.112-0.985-2.073-0.451-2.113-0.428c-0.112,0.065-0.255,0.026-0.32-0.085c-0.064-0.112-0.028-0.254,0.083-0.319
			c0.052-0.031,1.286-0.737,2.662,0.482c0.097,0.085,0.105,0.234,0.02,0.33C430.902,49.806,430.818,49.831,430.739,49.815"/>
		<path clip-path="url(#SVGID_24_)" fill="#1A2E35" d="M431.351,49.13c-0.04-0.008-0.079-0.026-0.111-0.055
			c-1.608-1.424-3.026-0.614-3.041-0.606c-0.111,0.066-0.255,0.029-0.32-0.083c-0.066-0.111-0.029-0.255,0.082-0.32
			c0.018-0.011,1.729-0.99,3.59,0.658c0.097,0.086,0.105,0.235,0.02,0.331C431.513,49.119,431.429,49.146,431.351,49.13"/>
		<path clip-path="url(#SVGID_24_)" fill="#1A2E35" d="M431.943,48.314c-0.04-0.007-0.079-0.026-0.111-0.055
			c-2.036-1.804-3.81-0.81-3.884-0.766c-0.111,0.065-0.255,0.027-0.32-0.084c-0.065-0.112-0.028-0.255,0.083-0.32
			c0.021-0.013,2.132-1.219,4.433,0.82c0.097,0.085,0.105,0.234,0.02,0.33C432.106,48.305,432.021,48.33,431.943,48.314"/>
		<path clip-path="url(#SVGID_24_)" fill="#1A2E35" d="M429.972,50.069c-0.061,0.319-0.368,0.528-0.688,0.467
			c-0.318-0.061-0.528-0.369-0.467-0.688c0.061-0.319,0.368-0.528,0.688-0.467C429.824,49.442,430.034,49.75,429.972,50.069"/>
		<polygon display="none" clip-path="url(#SVGID_24_)" fill="#1A2E35" points="380.637,85.686 379.94,80.344 380.846,80.518 
			381.332,84.601 383.298,80.985 384.125,81.143 381.5,85.851 380.963,88.66 380.101,88.495 		"/>
		<path display="none" clip-path="url(#SVGID_24_)" fill="#1A2E35" d="M384.159,83.11c0.228-1.197,0.97-1.857,2.167-1.628
			c1.209,0.231,1.654,1.116,1.426,2.314l-0.773,4.052c-0.227,1.186-0.969,1.856-2.178,1.626c-1.197-0.229-1.641-1.125-1.415-2.312
			L384.159,83.11z M384.239,87.371c-0.137,0.716,0.087,1.188,0.714,1.308c0.638,0.122,1.008-0.237,1.145-0.954l0.789-4.141
			c0.136-0.705-0.074-1.186-0.712-1.307c-0.627-0.12-1.011,0.248-1.146,0.953L384.239,87.371z"/>
		<path display="none" clip-path="url(#SVGID_24_)" fill="#1A2E35" d="M388.628,88.208c-0.135,0.705,0.064,1.184,0.702,1.306
			c0.627,0.119,0.987-0.253,1.122-0.958l1.143-5.988l0.818,0.156l-1.135,5.943c-0.227,1.187-0.927,1.876-2.135,1.646
			c-1.198-0.229-1.595-1.127-1.368-2.314l1.134-5.943l0.861,0.164L388.628,88.208z"/>
		<path display="none" clip-path="url(#SVGID_24_)" fill="#1A2E35" d="M395.023,83.223c1.231,0.235,1.627,0.96,1.404,2.124
			l-0.121,0.638c-0.165,0.862-0.57,1.342-1.282,1.426c0.675,0.349,0.834,0.983,0.674,1.822l-0.233,1.22
			c-0.066,0.347-0.117,0.673-0.022,0.97l-0.884-0.169c-0.059-0.243-0.064-0.453,0.035-0.979l0.235-1.231
			c0.169-0.884-0.191-1.243-0.92-1.382l-0.615-0.117l-0.639,3.346l-0.874-0.166l1.496-7.835L395.023,83.223z M394.094,86.874
			c0.694,0.132,1.15-0.012,1.313-0.863l0.143-0.75c0.135-0.705-0.052-1.124-0.701-1.248l-0.851-0.162l-0.554,2.899L394.094,86.874z"
			/>
		<path display="none" clip-path="url(#SVGID_24_)" fill="#1A2E35" d="M402.522,86.614l-0.134,0.705l-0.829-0.158l0.144-0.75
			c0.135-0.705-0.064-1.184-0.702-1.305c-0.627-0.12-1,0.25-1.134,0.955l-0.79,4.141c-0.135,0.705,0.075,1.186,0.702,1.306
			c0.638,0.121,0.999-0.25,1.134-0.956l0.194-1.018l0.828,0.158l-0.186,0.974c-0.227,1.186-0.936,1.863-2.146,1.632
			c-1.197-0.228-1.607-1.119-1.381-2.305l0.773-4.052c0.227-1.186,0.936-1.863,2.133-1.635
			C402.338,84.537,402.749,85.428,402.522,86.614"/>
		<path display="none" clip-path="url(#SVGID_24_)" fill="#1A2E35" d="M403.251,86.753c0.229-1.197,0.97-1.857,2.167-1.628
			c1.209,0.231,1.655,1.116,1.427,2.314l-0.773,4.052c-0.227,1.186-0.969,1.856-2.179,1.626c-1.197-0.229-1.642-1.125-1.415-2.312
			L403.251,86.753z M403.332,91.014c-0.137,0.716,0.087,1.188,0.713,1.308c0.639,0.122,1.009-0.237,1.146-0.954l0.79-4.141
			c0.135-0.704-0.075-1.186-0.714-1.307c-0.626-0.12-1.01,0.248-1.144,0.953L403.332,91.014z"/>
		<path display="none" clip-path="url(#SVGID_24_)" fill="#1A2E35" d="M409.871,86.056c1.222,0.233,1.64,1.078,1.409,2.287
			l-0.754,3.951c-0.229,1.197-0.929,1.829-2.149,1.597l-1.835-0.351l1.495-7.834L409.871,86.056z M408.517,93.094
			c0.627,0.12,1.004-0.215,1.141-0.931l0.769-4.029c0.137-0.716-0.09-1.166-0.729-1.288l-0.94-0.179l-1.191,6.245L408.517,93.094z"
			/>
		<polygon display="none" clip-path="url(#SVGID_24_)" fill="#1A2E35" points="414.595,90.554 414.446,91.337 412.533,90.972 
			412,93.759 414.351,94.208 414.199,95.002 410.975,94.387 412.47,86.553 415.694,87.168 415.542,87.962 413.192,87.514 
			412.681,90.189 		"/>
		<path display="none" clip-path="url(#SVGID_24_)" fill="#1A2E35" d="M374.614,117.433c0.618-0.714,1.438-0.995,2.431-0.806
			c1.901,0.363,2.479,1.918,2.076,4.029l-0.553,2.894c-0.432,2.259-1.789,3.532-4.05,3.1c-2.259-0.43-3.033-2.111-2.602-4.369
			l0.189-0.994l1.542,0.295l-0.21,1.098c-0.254,1.331,0.142,2.238,1.323,2.463c1.185,0.226,1.886-0.472,2.14-1.802l0.549-2.872
			c0.254-1.33-0.142-2.238-1.325-2.463c-0.907-0.174-1.616,0.217-1.971,1.265l-0.064,0.338l-1.541-0.294l1.969-8.138l5.829,1.112
			l-0.282,1.478l-4.351-0.83L374.614,117.433z"/>
		<path display="none" clip-path="url(#SVGID_24_)" fill="#1A2E35" d="M388.242,117.472l-0.053,0.275l-1.542-0.294l0.073-0.38
			c0.254-1.331-0.146-2.217-1.35-2.446c-1.246-0.238-1.948,0.46-2.252,2.043l-0.632,3.316c0.596-0.937,1.505-1.354,2.689-1.129
			c1.898,0.363,2.481,1.897,2.076,4.03l-0.428,2.238c-0.431,2.26-1.833,3.524-4.092,3.093c-2.28-0.435-3.118-2.127-2.687-4.386
			l1.438-7.539c0.447-2.344,1.781-3.6,4.126-3.153C387.891,113.576,388.673,115.213,388.242,117.472 M382.096,122.034l-0.423,2.217
			c-0.254,1.331,0.143,2.238,1.346,2.468c1.182,0.226,1.906-0.468,2.16-1.799l0.423-2.217c0.254-1.33-0.163-2.242-1.346-2.467
			C383.052,120.006,382.35,120.704,382.096,122.034"/>
		<path display="none" clip-path="url(#SVGID_24_)" fill="#1A2E35" d="M396.457,119.04l-0.053,0.275l-1.542-0.294l0.073-0.38
			c0.254-1.331-0.146-2.217-1.35-2.447c-1.246-0.238-1.948,0.46-2.251,2.044l-0.633,3.316c0.596-0.938,1.505-1.355,2.689-1.129
			c1.898,0.363,2.481,1.896,2.075,4.03l-0.427,2.238c-0.431,2.259-1.833,3.524-4.092,3.093c-2.282-0.435-3.118-2.127-2.687-4.387
			l1.438-7.538c0.447-2.344,1.781-3.6,4.126-3.153C396.105,115.144,396.888,116.781,396.457,119.04 M390.311,123.602l-0.423,2.217
			c-0.254,1.331,0.142,2.238,1.346,2.468c1.182,0.225,1.906-0.468,2.16-1.799l0.423-2.217c0.254-1.33-0.163-2.242-1.346-2.467
			C391.267,121.574,390.565,122.271,390.311,123.602"/>
		<path display="none" clip-path="url(#SVGID_24_)" fill="#1A2E35" d="M404.667,120.628l-1.438,7.539
			c-0.447,2.345-1.786,3.621-4.151,3.17c-2.259-0.431-3.058-2.094-2.627-4.353l0.053-0.275l1.541,0.294l-0.072,0.38
			c-0.254,1.331,0.167,2.221,1.35,2.447c1.268,0.241,1.969-0.456,2.268-2.019l0.632-3.315c-0.594,0.937-1.501,1.333-2.684,1.107
			c-1.9-0.363-2.487-1.875-2.08-4.008l0.432-2.26c0.431-2.259,1.807-3.507,4.087-3.072
			C404.257,116.699,405.098,118.369,404.667,120.628 M399.531,119.561l-0.423,2.217c-0.254,1.331,0.163,2.242,1.345,2.468
			c1.204,0.229,1.906-0.468,2.16-1.799l0.423-2.217c0.258-1.352-0.142-2.238-1.346-2.468
			C400.508,117.537,399.789,118.209,399.531,119.561"/>
		<path display="none" clip-path="url(#SVGID_24_)" fill="#1A2E35" d="M413.041,122.161l-0.089,0.464
			c-0.285,1.499-1.022,2.497-2.27,2.719c1.132,0.719,1.375,1.969,1.094,3.447l-0.21,1.099c-0.436,2.28-1.888,3.469-4.189,3.03
			c-2.303-0.439-3.215-2.08-2.779-4.36l0.209-1.098c0.286-1.5,0.965-2.53,2.308-2.799c-1.115-0.694-1.417-1.868-1.131-3.367
			l0.089-0.465c0.436-2.281,1.901-3.423,4.183-2.988C412.534,118.278,413.476,119.88,413.041,122.161 M407.691,121.184l-0.138,0.718
			c-0.273,1.435,0.302,2.202,1.464,2.424c1.161,0.221,1.979-0.279,2.253-1.715l0.136-0.718c0.291-1.52-0.272-2.351-1.434-2.572
			C408.81,119.099,407.981,119.663,407.691,121.184 M406.469,127.582l-0.237,1.247c-0.29,1.52,0.248,2.366,1.431,2.592
			s1.975-0.367,2.285-1.883l0.238-1.247c0.273-1.436-0.227-2.253-1.451-2.487C407.51,125.57,406.744,126.146,406.469,127.582"/>
		
			<line display="none" clip-path="url(#SVGID_24_)" fill="none" stroke="#1A2E35" stroke-miterlimit="10" x1="359.768" y1="161.407" x2="410.824" y2="171.15"/>
		
			<line display="none" clip-path="url(#SVGID_24_)" fill="none" stroke="#1A2E35" stroke-miterlimit="10" x1="357.867" y1="171.369" x2="408.922" y2="181.112"/>
		
			<line clip-path="url(#SVGID_24_)" fill="none" stroke="#1A2E35" stroke-miterlimit="10" x1="442.559" y1="123.875" x2="454.91" y2="121.975"/>
		
			<line clip-path="url(#SVGID_24_)" fill="none" stroke="#1A2E35" stroke-miterlimit="10" x1="440.66" y1="138.125" x2="447.31" y2="140.025"/>
		
			<line clip-path="url(#SVGID_24_)" fill="none" stroke="#1A2E35" stroke-miterlimit="10" x1="436.859" y1="150.476" x2="449.209" y2="159.026"/>
	</g>
	<g clip-path="url(#SVGID_2_)">
		<defs>
			<rect id="SVGID_25_" x="-17.602" y="-25.102" width="500" height="500"/>
		</defs>
		<clipPath id="SVGID_26_">
			<use xlink:href="#SVGID_25_"  overflow="visible"/>
		</clipPath>
		<path clip-path="url(#SVGID_26_)" fill="#1A2E35" d="M324.172,147.6c1.337,0,2.42-1.083,2.42-2.42v-19.992
			c0-1.336-1.083-2.42-2.42-2.42h-0.108v-7.819c0-5.328-4.318-9.646-9.646-9.646H103.418c-5.328,0-9.646,4.318-9.646,9.646v145.765
			c0,5.327,4.318,9.646,9.646,9.646h210.999c5.328,0,9.646-4.318,9.646-9.646v-52.297h0.108c1.337,0,2.42-1.084,2.42-2.42v-19.992
			c0-1.336-1.083-2.42-2.42-2.42h-0.108v-2.525h0.108c1.337,0,2.42-1.084,2.42-2.42v-19.992c0-1.337-1.083-2.42-2.42-2.42h-0.108
			V147.6H324.172z"/>
		<rect x="102.374" y="111.732" clip-path="url(#SVGID_26_)" fill="#008DFF" width="213.086" height="152.196"/>
		
			<rect x="102.374" y="111.732" clip-path="url(#SVGID_26_)" fill="none" stroke="#1A2E35" stroke-miterlimit="10" width="213.086" height="152.196"/>
		<rect x="149.691" y="131.298" clip-path="url(#SVGID_26_)" fill="#E3E3E3" width="119.168" height="95.715"/>
		
			<rect x="149.691" y="131.298" clip-path="url(#SVGID_26_)" fill="none" stroke="#1A2E35" stroke-miterlimit="10" width="119.168" height="95.715"/>
		<polygon clip-path="url(#SVGID_26_)" fill="#B3B3B3" points="194.525,200.486 194.525,201.085 193.063,201.085 193.063,203.215 
			194.859,203.215 194.859,203.822 192.396,203.822 192.396,197.835 194.859,197.835 194.859,198.442 193.063,198.442 
			193.063,200.486 		"/>
		<polygon clip-path="url(#SVGID_26_)" fill="#B3B3B3" points="196.064,203.822 195.465,203.822 195.465,197.835 196.313,197.835 
			197.697,202.162 197.697,197.835 198.288,197.835 198.288,203.822 197.595,203.822 196.064,198.981 		"/>
		<polygon clip-path="url(#SVGID_26_)" fill="#B3B3B3" points="199.835,203.822 199.835,198.442 198.731,198.442 198.731,197.835 
			201.597,197.835 201.597,198.442 200.494,198.442 200.494,203.822 		"/>
		<polygon clip-path="url(#SVGID_26_)" fill="#B3B3B3" points="204.179,200.486 204.179,201.085 202.717,201.085 202.717,203.215 
			204.512,203.215 204.512,203.822 202.049,203.822 202.049,197.835 204.512,197.835 204.512,198.442 202.717,198.442 
			202.717,200.486 		"/>
		<path clip-path="url(#SVGID_26_)" fill="#B3B3B3" d="M206.461,197.835c0.941,0,1.334,0.479,1.334,1.368v0.488
			c0,0.658-0.231,1.069-0.744,1.232c0.548,0.162,0.753,0.607,0.753,1.248v0.932c0,0.266,0.008,0.514,0.12,0.719h-0.676
			c-0.077-0.171-0.111-0.325-0.111-0.727v-0.941c0-0.676-0.317-0.89-0.872-0.89h-0.471v2.558h-0.667v-5.987H206.461z
			 M206.29,200.657c0.53,0,0.847-0.171,0.847-0.821v-0.573c0-0.539-0.197-0.821-0.693-0.821h-0.65v2.215H206.29z"/>
		<path clip-path="url(#SVGID_26_)" fill="#B3B3B3" d="M212.464,199.28v0.539h-0.633v-0.574c0-0.539-0.214-0.863-0.702-0.863
			c-0.478,0-0.701,0.324-0.701,0.863v3.165c0,0.539,0.223,0.864,0.701,0.864c0.488,0,0.702-0.325,0.702-0.864v-0.778h0.633v0.744
			c0,0.906-0.428,1.505-1.352,1.505c-0.915,0-1.342-0.599-1.342-1.505v-3.096c0-0.907,0.427-1.505,1.342-1.505
			C212.036,197.775,212.464,198.373,212.464,199.28"/>
		<path clip-path="url(#SVGID_26_)" fill="#B3B3B3" d="M213.019,199.281c0-0.916,0.453-1.506,1.368-1.506
			c0.924,0,1.377,0.59,1.377,1.506v3.095c0,0.907-0.453,1.506-1.377,1.506c-0.915,0-1.368-0.599-1.368-1.506V199.281z
			 M213.678,202.411c0,0.547,0.23,0.864,0.709,0.864c0.488,0,0.71-0.317,0.71-0.864v-3.165c0-0.539-0.222-0.864-0.71-0.864
			c-0.479,0-0.709,0.325-0.709,0.864V202.411z"/>
		<path clip-path="url(#SVGID_26_)" fill="#B3B3B3" d="M217.798,197.834c0.933,0,1.361,0.565,1.361,1.488v3.019
			c0,0.915-0.428,1.48-1.361,1.48h-1.403v-5.987H217.798z M217.791,203.214c0.479,0,0.709-0.299,0.709-0.847v-3.079
			c0-0.547-0.23-0.846-0.718-0.846h-0.718v4.772H217.791z"/>
		<polygon clip-path="url(#SVGID_26_)" fill="#B3B3B3" points="221.912,200.486 221.912,201.085 220.45,201.085 220.45,203.215 
			222.246,203.215 222.246,203.822 219.783,203.822 219.783,197.835 222.246,197.835 222.246,198.442 220.45,198.442 
			220.45,200.486 		"/>
		<rect x="158.892" y="162.912" clip-path="url(#SVGID_26_)" fill="#FFFFFF" width="100.561" height="11.348"/>
		
			<rect x="158.892" y="162.912" clip-path="url(#SVGID_26_)" fill="none" stroke="#1A2E35" stroke-miterlimit="10" width="100.561" height="11.348"/>
		<rect x="158.892" y="180.912" clip-path="url(#SVGID_26_)" fill="#FFFFFF" width="100.561" height="11.347"/>
		
			<rect x="158.892" y="180.912" clip-path="url(#SVGID_26_)" fill="none" stroke="#1A2E35" stroke-miterlimit="10" width="100.561" height="11.347"/>
		<rect x="213.884" y="206.511" clip-path="url(#SVGID_26_)" fill="#FFFFFF" width="9.495" height="11.347"/>
		
			<rect x="213.884" y="206.511" clip-path="url(#SVGID_26_)" fill="none" stroke="#1A2E35" stroke-miterlimit="10" width="9.495" height="11.347"/>
		<rect x="201.8" y="206.511" clip-path="url(#SVGID_26_)" fill="#FFFFFF" width="9.495" height="11.347"/>
		
			<rect x="201.8" y="206.511" clip-path="url(#SVGID_26_)" fill="none" stroke="#1A2E35" stroke-miterlimit="10" width="9.495" height="11.347"/>
		<rect x="189.717" y="206.511" clip-path="url(#SVGID_26_)" fill="#FFFFFF" width="9.495" height="11.347"/>
		
			<rect x="189.717" y="206.511" clip-path="url(#SVGID_26_)" fill="none" stroke="#1A2E35" stroke-miterlimit="10" width="9.495" height="11.347"/>
		<rect x="178.064" y="206.511" clip-path="url(#SVGID_26_)" fill="#FFFFFF" width="9.063" height="11.347"/>
		
			<rect x="178.064" y="206.511" clip-path="url(#SVGID_26_)" fill="none" stroke="#1A2E35" stroke-miterlimit="10" width="9.063" height="11.347"/>
		<rect x="225.969" y="206.511" clip-path="url(#SVGID_26_)" fill="#FFFFFF" width="9.839" height="11.347"/>
		
			<rect x="225.969" y="206.511" clip-path="url(#SVGID_26_)" fill="none" stroke="#1A2E35" stroke-miterlimit="10" width="9.839" height="11.347"/>
		<path clip-path="url(#SVGID_26_)" fill="#1A2E35" d="M214.068,144.288v-2.178c0-3.537-2.878-6.414-6.415-6.414
			c-3.536,0-6.414,2.877-6.414,6.414v2.178h-0.119v12.063h13.068v-12.063H214.068z M208.041,150.917v2.186h-1.238v-2.186
			c-0.604-0.245-1.031-0.835-1.031-1.527c0-0.912,0.738-1.651,1.65-1.651c0.911,0,1.65,0.739,1.65,1.651
			C209.071,150.081,208.645,150.672,208.041,150.917 M211.627,144.288h-7.947v-2.178c0-2.191,1.783-3.974,3.973-3.974
			c2.191,0,3.974,1.783,3.974,3.974V144.288z"/>
		<path clip-path="url(#SVGID_26_)" fill="#B3B3B3" d="M193.597,169.965c0,0.539,0.214,0.864,0.702,0.864
			c0.478,0,0.692-0.325,0.692-0.864v-4.576h0.625v4.542c0,0.906-0.419,1.514-1.344,1.514c-0.914,0-1.334-0.608-1.334-1.514v-4.542
			h0.659V169.965z"/>
		<path clip-path="url(#SVGID_26_)" fill="#B3B3B3" d="M198.865,166.827v0.163h-0.633v-0.197c0-0.539-0.205-0.856-0.684-0.856
			s-0.684,0.317-0.684,0.847c0,1.343,2.01,1.471,2.01,3.156c0,0.907-0.437,1.497-1.352,1.497c-0.915,0-1.343-0.59-1.343-1.497
			v-0.342h0.625v0.376c0,0.539,0.222,0.855,0.701,0.855s0.701-0.316,0.701-0.855c0-1.334-2.001-1.462-2.001-3.147
			c0-0.924,0.428-1.497,1.326-1.497C198.437,165.33,198.865,165.919,198.865,166.827"/>
		<polygon clip-path="url(#SVGID_26_)" fill="#B3B3B3" points="201.583,168.041 201.583,168.64 200.122,168.64 200.122,170.77 
			201.917,170.77 201.917,171.377 199.455,171.377 199.455,165.39 201.917,165.39 201.917,165.997 200.122,165.997 200.122,168.041 
					"/>
		<path clip-path="url(#SVGID_26_)" fill="#B3B3B3" d="M203.866,165.39c0.941,0,1.334,0.479,1.334,1.368v0.488
			c0,0.658-0.231,1.069-0.744,1.232c0.548,0.162,0.753,0.607,0.753,1.248v0.932c0,0.265,0.008,0.514,0.12,0.719h-0.676
			c-0.077-0.171-0.111-0.325-0.111-0.727v-0.941c0-0.676-0.317-0.89-0.873-0.89h-0.47v2.558h-0.668v-5.987H203.866z
			 M203.695,168.212c0.53,0,0.847-0.171,0.847-0.821v-0.573c0-0.539-0.197-0.821-0.693-0.821h-0.65v2.215H203.695z"/>
		<polygon clip-path="url(#SVGID_26_)" fill="#B3B3B3" points="207.816,171.377 207.217,171.377 207.217,165.39 208.064,165.39 
			209.449,169.717 209.449,165.39 210.041,165.39 210.041,171.377 209.348,171.377 207.816,166.536 		"/>
		<path clip-path="url(#SVGID_26_)" fill="#B3B3B3" d="M211.399,170.171l-0.231,1.206h-0.616l1.146-5.987h0.967l1.145,5.987h-0.667
			l-0.231-1.206H211.399z M211.484,169.598h1.334l-0.675-3.456L211.484,169.598z"/>
		<polygon clip-path="url(#SVGID_26_)" fill="#B3B3B3" points="216.538,171.368 215.897,171.368 214.905,166.604 214.905,171.377 
			214.323,171.377 214.323,165.389 215.255,165.389 216.239,170.17 217.188,165.389 218.12,165.389 218.12,171.377 217.487,171.377 
			217.487,166.561 		"/>
		<polygon clip-path="url(#SVGID_26_)" fill="#B3B3B3" points="220.933,168.041 220.933,168.64 219.471,168.64 219.471,170.77 
			221.267,170.77 221.267,171.377 218.804,171.377 218.804,165.39 221.267,165.39 221.267,165.997 219.471,165.997 219.471,168.041 
					"/>
		<polygon clip-path="url(#SVGID_26_)" fill="#B3B3B3" points="194.513,186.016 195.418,187.016 194.982,187.342 194.307,186.153 
			193.64,187.342 193.204,187.016 194.102,186.016 192.777,185.743 192.938,185.221 194.188,185.768 194.034,184.416 
			194.581,184.416 194.436,185.768 195.684,185.229 195.847,185.75 		"/>
		<polygon clip-path="url(#SVGID_26_)" fill="#B3B3B3" points="197.89,186.016 198.795,187.016 198.36,187.342 197.684,186.153 
			197.017,187.342 196.581,187.016 197.479,186.016 196.154,185.743 196.315,185.221 197.564,185.768 197.411,184.416 
			197.958,184.416 197.813,185.768 199.062,185.229 199.224,185.75 		"/>
		<polygon clip-path="url(#SVGID_26_)" fill="#B3B3B3" points="201.267,186.016 202.174,187.016 201.737,187.342 201.061,186.153 
			200.394,187.342 199.958,187.016 200.856,186.016 199.531,185.743 199.693,185.221 200.942,185.768 200.788,184.416 
			201.335,184.416 201.19,185.768 202.439,185.229 202.601,185.75 		"/>
		<polygon clip-path="url(#SVGID_26_)" fill="#B3B3B3" points="204.645,186.016 205.55,187.016 205.115,187.342 204.438,186.153 
			203.771,187.342 203.335,187.016 204.233,186.016 202.908,185.743 203.07,185.221 204.319,185.768 204.166,184.416 
			204.712,184.416 204.567,185.768 205.815,185.229 205.979,185.75 		"/>
		<polygon clip-path="url(#SVGID_26_)" fill="#B3B3B3" points="208.022,186.016 208.928,187.016 208.492,187.342 207.816,186.153 
			207.149,187.342 206.713,187.016 207.611,186.016 206.286,185.743 206.448,185.221 207.697,185.768 207.543,184.416 
			208.09,184.416 207.945,185.768 209.194,185.229 209.356,185.75 		"/>
		<polygon clip-path="url(#SVGID_26_)" fill="#B3B3B3" points="211.399,186.016 212.306,187.016 211.87,187.342 211.193,186.153 
			210.526,187.342 210.09,187.016 210.988,186.016 209.663,185.743 209.825,185.221 211.074,185.768 210.92,184.416 
			211.467,184.416 211.322,185.768 212.571,185.229 212.733,185.75 		"/>
		<polygon clip-path="url(#SVGID_26_)" fill="#B3B3B3" points="214.777,186.016 215.683,187.016 215.247,187.342 214.571,186.153 
			213.904,187.342 213.468,187.016 214.366,186.016 213.04,185.743 213.203,185.221 214.452,185.768 214.298,184.416 
			214.845,184.416 214.7,185.768 215.948,185.229 216.111,185.75 		"/>
		<polygon clip-path="url(#SVGID_26_)" fill="#B3B3B3" points="218.154,186.016 219.06,187.016 218.624,187.342 217.948,186.153 
			217.281,187.342 216.845,187.016 217.743,186.016 216.418,185.743 216.58,185.221 217.829,185.768 217.675,184.416 
			218.222,184.416 218.077,185.768 219.326,185.229 219.488,185.75 		"/>
	</g>
	<g clip-path="url(#SVGID_2_)">
		<defs>
			<rect id="SVGID_27_" x="-17.602" y="-25.102" width="500" height="500"/>
		</defs>
		<clipPath id="SVGID_28_">
			<use xlink:href="#SVGID_27_"  overflow="visible"/>
		</clipPath>
		<path clip-path="url(#SVGID_28_)" fill="#1A2E35" d="M283.321,398.501c0,33.198-28.64,60.111-63.968,60.111
			s-63.967-26.913-63.967-60.111s28.639-60.111,63.967-60.111S283.321,365.303,283.321,398.501"/>
		<path clip-path="url(#SVGID_28_)" fill="#FFFFFF" d="M281.979,395.369c0,33.198-28.64,60.111-63.968,60.111
			s-63.968-26.913-63.968-60.111s28.64-60.111,63.968-60.111S281.979,362.171,281.979,395.369"/>
		
			<ellipse clip-path="url(#SVGID_28_)" fill="none" stroke="#1A2E35" stroke-miterlimit="10" cx="218.011" cy="395.369" rx="63.968" ry="60.111"/>
		<path clip-path="url(#SVGID_28_)" fill="#FFFFFF" d="M273.226,395.369c0,28.656-24.721,51.886-55.215,51.886
			s-55.214-23.229-55.214-51.886c0-28.655,24.72-51.886,55.214-51.886S273.226,366.714,273.226,395.369"/>
		
			<ellipse clip-path="url(#SVGID_28_)" fill="none" stroke="#1A2E35" stroke-miterlimit="10" cx="218.011" cy="395.369" rx="55.215" ry="51.886"/>
		<path clip-path="url(#SVGID_28_)" fill="#1A2E35" d="M233.307,360.434c-22.161,0-40.125,22.574-40.125,50.422
			c0,17.965,7.482,33.725,18.739,42.655c1.86,0.155,3.738,0.249,5.64,0.249c23.294,0,43.611-11.926,54.455-29.625
			c0.918-4.232,1.417-8.681,1.417-13.279C273.433,383.008,255.468,360.434,233.307,360.434"/>
		<rect x="167.522" y="388.119" clip-path="url(#SVGID_28_)" fill="#FFFFFF" width="26.135" height="6.251"/>
		
			<rect x="167.522" y="388.119" clip-path="url(#SVGID_28_)" fill="none" stroke="#1A2E35" stroke-miterlimit="10" width="26.135" height="6.251"/>
		<path clip-path="url(#SVGID_28_)" fill="#FFFFFF" d="M267.082,390.904c0,20.685-17.844,37.452-39.855,37.452
			c-22.012,0-39.856-16.768-39.856-37.452s17.844-37.453,39.856-37.453C249.238,353.451,267.082,370.22,267.082,390.904"/>
		
			<ellipse clip-path="url(#SVGID_28_)" fill="none" stroke="#1A2E35" stroke-miterlimit="10" cx="227.226" cy="390.904" rx="39.855" ry="37.452"/>
		<path clip-path="url(#SVGID_28_)" fill="#1A2E35" d="M260.499,390.904c0,17.268-14.896,31.267-33.272,31.267
			c-18.377,0-33.273-13.999-33.273-31.267c0-17.269,14.896-31.268,33.273-31.268C245.602,359.637,260.499,373.636,260.499,390.904"
			/>
		
			<ellipse clip-path="url(#SVGID_28_)" fill="none" stroke="#1A2E35" stroke-miterlimit="10" cx="227.226" cy="390.904" rx="33.272" ry="31.267"/>
		<path clip-path="url(#SVGID_28_)" fill="none" stroke="#1A2E35" stroke-miterlimit="10" d="M213.286,362.23
			c-0.211-0.521-0.458-1.031-0.743-1.527c-3.392-5.903-2.968-13.418-0.424-20.396"/>
		<path clip-path="url(#SVGID_28_)" fill="none" stroke="#FFFFFF" stroke-miterlimit="10" d="M213.815,374.659
			c0,0,1.779-6.756-0.53-12.429"/>
		<path clip-path="url(#SVGID_28_)" fill="none" stroke="#1A2E35" stroke-miterlimit="10" d="M225.69,360.703
			c-3.393-5.903-2.969-13.418-0.424-20.396"/>
		<path clip-path="url(#SVGID_28_)" fill="none" stroke="#FFFFFF" stroke-miterlimit="10" d="M226.962,374.659
			c0,0,2.12-8.052-1.272-13.956"/>
		<path clip-path="url(#SVGID_28_)" fill="none" stroke="#1A2E35" stroke-miterlimit="10" d="M239.255,361.498
			c-0.129-0.269-0.27-0.533-0.419-0.795c-3.394-5.903-2.969-13.418-0.424-20.396"/>
		<path clip-path="url(#SVGID_28_)" fill="none" stroke="#FFFFFF" stroke-miterlimit="10" d="M240.109,374.659
			c0,0,1.937-7.355-0.854-13.161"/>
	</g>
	<g clip-path="url(#SVGID_2_)">
		<defs>
			<rect id="SVGID_29_" x="-17.602" y="-25.102" width="500" height="500"/>
		</defs>
		<clipPath id="SVGID_30_">
			<use xlink:href="#SVGID_29_"  overflow="visible"/>
		</clipPath>
		<path clip-path="url(#SVGID_30_)" fill="#1A2E35" d="M366.537,335.14c0,0-1.041,0.057-2.904,0.259
			c-1.766-5.995-7.062-23.74-10.539-32.908c-4.226-11.139-9.987-26.888-13.828-33.417c-3.841-6.53-3.457-10.372-10.755-16.517
			c-7.298-6.146-13.827-3.457-13.827-3.457s-1.153-4.609-8.451-6.914s-17.285,2.305-17.285,2.305s-1.536-2.688-8.834-1.921
			c-7.298,0.769-9.987,7.299-9.987,7.299s-14.979-29.96-20.741-32.266c-5.762-2.304-11.523,3.457-9.219,8.835
			c2.305,5.377,19.59,35.338,21.895,42.251c2.305,6.914,7.298,18.438,7.298,18.438s-16.517-11.907-21.509-13.06
			c-4.994-1.152-12.292-1.921-16.518,2.688c-4.226,4.609,5.762,5.762,13.827,13.06c8.066,7.298,21.126,24.199,27.271,34.954
			c6.146,10.755,19.206,12.675,24.968,18.821c4.055,4.325,9.819,10.359,12.88,13.557c-1.929,2.007-2.894,3.344-2.894,3.344
			l12.676,31.112c0,0,2.688-4.225,13.443-12.676c10.755-8.45,44.172-18.82,44.172-18.82L366.537,335.14z"/>
		<path clip-path="url(#SVGID_30_)" fill="none" stroke="#1A2E35" stroke-miterlimit="10" d="M366.537,335.14
			c0,0-1.041,0.057-2.904,0.259c-1.766-5.995-7.062-23.74-10.539-32.908c-4.226-11.139-9.987-26.888-13.828-33.417
			c-3.841-6.53-3.457-10.372-10.755-16.517c-7.298-6.146-13.827-3.457-13.827-3.457s-1.153-4.609-8.451-6.914
			s-17.285,2.305-17.285,2.305s-1.536-2.688-8.834-1.921c-7.298,0.769-9.987,7.299-9.987,7.299s-14.979-29.96-20.741-32.266
			c-5.762-2.304-11.523,3.457-9.219,8.835c2.305,5.377,19.59,35.338,21.895,42.251c2.305,6.914,7.298,18.438,7.298,18.438
			s-16.517-11.907-21.509-13.06c-4.994-1.152-12.292-1.921-16.518,2.688c-4.226,4.609,5.762,5.762,13.827,13.06
			c8.066,7.298,21.126,24.199,27.271,34.954c6.146,10.755,19.206,12.675,24.968,18.821c4.055,4.325,9.819,10.359,12.88,13.557
			c-1.929,2.007-2.894,3.344-2.894,3.344l12.676,31.112c0,0,2.688-4.225,13.443-12.676c10.755-8.45,44.172-18.82,44.172-18.82
			L366.537,335.14z"/>
		<path clip-path="url(#SVGID_30_)" fill="#FFFFFF" d="M311.905,351.303c0,0-9.219-9.603-14.979-15.748
			c-5.762-6.146-18.821-8.066-24.968-18.821c-6.146-10.755-19.205-27.656-27.271-34.954c-8.065-7.298-18.052-8.45-13.827-13.06
			c4.225-4.609,11.523-3.841,16.517-2.688s21.509,13.06,21.509,13.06s-4.992-11.523-7.297-18.438s-19.59-36.874-21.895-42.25
			c-2.305-5.378,3.457-11.14,9.219-8.835c5.762,2.305,20.742,32.265,20.742,32.265s2.688-6.53,9.986-7.299
			c7.298-0.768,8.834,1.921,8.834,1.921s9.987-4.609,17.284-2.305c7.299,2.305,8.451,6.914,8.451,6.914s6.53-2.688,13.828,3.457
			s6.914,9.986,10.755,16.517c3.841,6.529,9.603,22.278,13.828,33.417c4.225,11.139,11.138,34.953,11.138,34.953l-49.549,26.888
			L311.905,351.303z"/>
		<path clip-path="url(#SVGID_30_)" fill="none" stroke="#1A2E35" stroke-miterlimit="10" d="M311.905,351.303
			c0,0-9.219-9.603-14.979-15.748c-5.762-6.146-18.821-8.066-24.968-18.821c-6.146-10.755-19.205-27.656-27.271-34.954
			c-8.065-7.298-18.052-8.45-13.827-13.06c4.225-4.609,11.523-3.841,16.517-2.688s21.509,13.06,21.509,13.06
			s-4.992-11.523-7.297-18.438s-19.59-36.874-21.895-42.25c-2.305-5.378,3.457-11.14,9.219-8.835
			c5.762,2.305,20.742,32.265,20.742,32.265s2.688-6.53,9.986-7.299c7.298-0.768,8.834,1.921,8.834,1.921s9.987-4.609,17.284-2.305
			c7.299,2.305,8.451,6.914,8.451,6.914s6.53-2.688,13.828,3.457s6.914,9.986,10.755,16.517c3.841,6.529,9.603,22.278,13.828,33.417
			c4.225,11.139,11.138,34.953,11.138,34.953l-49.549,26.888L311.905,351.303z"/>
		
			<line clip-path="url(#SVGID_30_)" fill="none" stroke="#1A2E35" stroke-miterlimit="10" x1="269.654" y1="241.833" x2="283.097" y2="261.806"/>
		
			<line clip-path="url(#SVGID_30_)" fill="none" stroke="#1A2E35" stroke-miterlimit="10" x1="288.474" y1="236.455" x2="300.766" y2="255.66"/>
		
			<line clip-path="url(#SVGID_30_)" fill="none" stroke="#1A2E35" stroke-miterlimit="10" x1="314.209" y1="241.064" x2="322.66" y2="256.045"/>
		
			<line clip-path="url(#SVGID_30_)" fill="none" stroke="#1A2E35" stroke-miterlimit="10" x1="274.81" y1="296.273" x2="276.567" y2="301.369"/>
		
			<line clip-path="url(#SVGID_30_)" fill="none" stroke="#1A2E35" stroke-miterlimit="10" x1="268.885" y1="279.091" x2="273.589" y2="292.731"/>
		
			<line clip-path="url(#SVGID_30_)" fill="none" stroke="#1A2E35" stroke-miterlimit="10" x1="290.395" y1="266.415" x2="293.468" y2="270.641"/>
		
			<line clip-path="url(#SVGID_30_)" fill="none" stroke="#1A2E35" stroke-miterlimit="10" x1="304.607" y1="262.19" x2="308.064" y2="266.8"/>
		
			<line clip-path="url(#SVGID_30_)" fill="none" stroke="#1A2E35" stroke-miterlimit="10" x1="323.428" y1="259.886" x2="325.733" y2="267.184"/>
		<path clip-path="url(#SVGID_30_)" fill="#FFFFFF" d="M306.912,352.455c0,0,8.834-12.292,26.888-18.438
			c18.053-6.146,32.265-6.913,32.265-6.913l11.139,24.967c0,0-33.417,10.37-44.172,18.82c-10.755,8.451-13.443,12.676-13.443,12.676
			L306.912,352.455z"/>
		<path clip-path="url(#SVGID_30_)" fill="none" stroke="#1A2E35" stroke-miterlimit="10" d="M306.912,352.455
			c0,0,8.834-12.292,26.888-18.438c18.053-6.146,32.265-6.913,32.265-6.913l11.139,24.967c0,0-33.417,10.37-44.172,18.82
			c-10.755,8.451-13.443,12.676-13.443,12.676L306.912,352.455z"/>
		<path clip-path="url(#SVGID_30_)" fill="#FFFFFF" d="M337.256,435.422c0,0-14.597-36.49-18.437-44.172
			c-3.842-7.683,2.304-11.523,2.304-11.523s8.834-11.908,31.881-21.126c23.046-9.219,24.967-9.603,30.729-3.072
			c5.762,6.529,43.551,79.961,43.551,79.961"/>
		<path clip-path="url(#SVGID_30_)" fill="none" stroke="#1A2E35" stroke-miterlimit="10" d="M337.256,435.422
			c0,0-14.597-36.49-18.437-44.172c-3.842-7.683,2.304-11.523,2.304-11.523s8.834-11.908,31.881-21.126
			c23.046-9.219,24.967-9.603,30.729-3.072c5.762,6.529,43.551,79.961,43.551,79.961"/>
	</g>
	<g clip-path="url(#SVGID_2_)">
		<defs>
			<rect id="SVGID_31_" x="-17.602" y="-25.102" width="500" height="500"/>
		</defs>
		<clipPath id="SVGID_32_">
			<use xlink:href="#SVGID_31_"  overflow="visible"/>
		</clipPath>
		<path clip-path="url(#SVGID_32_)" fill="#1A2E35" d="M97.48,397.026c0,0,5.221-11.195,17.655-17.539
			c12.434-6.343,20.514-9.072,32.413-20.809c11.898-11.735,31.508-22.218,39.595-23.663c8.086-1.444,10.769-4.924,7.285-8.892
			c-3.484-3.968-12.99-4.187-21.455-1.327c-8.466,2.859-16.287,6.359-16.287,6.358c4.287-8.442,7.14-18.606,11.361-27.081
			c2.996-6.013,7.914-15.935,10.826-21.988c1.899-3.952,7.563-10.531,5.045-14.847c-2.535-4.343-8.588-1.454-11.658,2.673
			c-4.879,6.56-28.75,42.544-28.75,42.543c4.535-9.599,9.07-19.197,13.604-28.797c6.892-14.59,10.178-21.546,9.203-19.481
			c2.01-4.257,5.923-9.955,3.535-14.864c-2.421-4.978-9.431-5.488-12.339-0.749c-3.318,5.408-28.687,53.419-28.687,53.419
			s15.88-41.209,17.909-45.945c2.479-5.783,1.016-10.824-2.642-10.796c-5.315,0.041-7.827,5.926-9.91,9.928
			c0.387-0.563,0.774-1.125,1.161-1.688c-4.968,6.625-8.311,15.33-12.466,22.52c-4.857,8.403-9.885,16.707-15.081,24.905
			c1.021-8.492,4.429-16.447,8.651-23.813c2.548-4.443,13.155-15.354,11.343-20.718c-1.56-4.618-13.193,4.06-19.959,13.531
			c-3.687,5.163-13.352,19.239-16.009,29.14c-2.658,9.9-21.276,43.627-26.248,53.023c-4.971,9.396-10.942,25.989-10.942,25.989
			L97.48,397.026z"/>
		<path clip-path="url(#SVGID_32_)" fill="none" stroke="#1A2E35" stroke-miterlimit="10" d="M97.48,397.026
			c0,0,5.221-11.195,17.655-17.539c12.434-6.343,20.514-9.072,32.413-20.809c11.898-11.735,31.508-22.218,39.595-23.663
			c8.086-1.444,10.769-4.924,7.285-8.892c-3.484-3.968-12.99-4.187-21.455-1.327c-8.466,2.859-16.287,6.359-16.287,6.358
			c4.287-8.442,7.14-18.606,11.361-27.081c2.996-6.013,7.914-15.935,10.826-21.988c1.899-3.952,7.563-10.531,5.045-14.847
			c-2.535-4.343-8.588-1.454-11.658,2.673c-4.879,6.56-28.75,42.544-28.75,42.543c4.535-9.599,9.07-19.197,13.604-28.797
			c6.892-14.59,10.178-21.546,9.203-19.481c2.01-4.257,5.923-9.955,3.535-14.864c-2.421-4.978-9.431-5.488-12.339-0.749
			c-3.318,5.408-28.687,53.419-28.687,53.419s15.88-41.209,17.909-45.945c2.479-5.783,1.016-10.824-2.642-10.796
			c-5.315,0.041-7.827,5.926-9.91,9.928c0.387-0.563,0.774-1.125,1.161-1.688c-4.968,6.625-8.311,15.33-12.466,22.52
			c-4.857,8.403-9.885,16.707-15.081,24.905c1.021-8.492,4.429-16.447,8.651-23.813c2.548-4.443,13.155-15.354,11.343-20.718
			c-1.56-4.618-13.193,4.06-19.959,13.531c-3.687,5.163-13.352,19.239-16.009,29.14c-2.658,9.9-21.276,43.627-26.248,53.023
			c-4.971,9.396-10.942,25.989-10.942,25.989L97.48,397.026z"/>
		<path clip-path="url(#SVGID_32_)" fill="#1A2E35" d="M111.664,387.973c0,0-9.575-11.724-27.973-16.744s-32.63-4.911-32.63-4.911
			l-9.578,25.605c0,0,33.993,8.291,45.248,16.063c11.256,7.771,14.2,11.822,14.2,11.822L111.664,387.973z"/>
		<path clip-path="url(#SVGID_32_)" fill="none" stroke="#1A2E35" stroke-miterlimit="10" d="M111.664,387.973
			c0,0-9.575-11.724-27.973-16.744s-32.63-4.911-32.63-4.911l-9.578,25.605c0,0,33.993,8.291,45.248,16.063
			c11.256,7.771,14.2,11.822,14.2,11.822L111.664,387.973z"/>
		<path clip-path="url(#SVGID_32_)" fill="#FFFFFF" d="M96.214,392.593c0,0,5.221-11.195,17.655-17.539
			c12.433-6.343,20.514-9.072,32.413-20.809c11.898-11.735,31.508-22.218,39.594-23.662c8.087-1.445,10.77-4.924,7.286-8.892
			c-3.484-3.969-12.99-4.188-21.455-1.328c-8.466,2.859-16.287,6.359-16.287,6.358c4.287-8.442,7.14-18.606,11.361-27.081
			c2.996-6.013,7.914-15.935,10.826-21.988c1.899-3.952,7.563-10.531,5.045-14.847c-2.535-4.343-8.588-1.454-11.658,2.674
			c-4.879,6.559-28.75,42.543-28.75,42.543c4.535-9.6,9.069-19.198,13.604-28.798c6.891-14.59,10.178-21.546,9.203-19.481
			c2.01-4.257,5.923-9.955,3.535-14.864c-2.421-4.978-9.431-5.488-12.339-0.748c-3.319,5.407-28.687,53.418-28.687,53.418
			s15.88-41.209,17.909-45.945c2.479-5.783,1.015-10.824-2.642-10.796c-5.315,0.041-7.827,5.926-9.91,9.928
			c0.387-0.563,0.774-1.125,1.161-1.688c-4.969,6.625-8.311,15.33-12.466,22.52c-4.857,8.403-9.886,16.707-15.081,24.905
			c1.021-8.492,4.429-16.447,8.651-23.813c2.548-4.443,13.155-15.354,11.343-20.718c-1.56-4.618-13.193,4.06-19.959,13.531
			c-3.687,5.163-13.352,19.239-16.009,29.14c-2.658,9.9-21.276,43.627-26.248,53.023c-4.971,9.395-10.942,25.989-10.942,25.989
			L96.214,392.593z"/>
		<path clip-path="url(#SVGID_32_)" fill="none" stroke="#1A2E35" stroke-miterlimit="10" d="M96.214,392.593
			c0,0,5.221-11.195,17.655-17.539c12.433-6.343,20.514-9.072,32.413-20.809c11.898-11.735,31.508-22.218,39.594-23.662
			c8.087-1.445,10.77-4.924,7.286-8.892c-3.484-3.969-12.99-4.188-21.455-1.328c-8.466,2.859-16.287,6.359-16.287,6.358
			c4.287-8.442,7.14-18.606,11.361-27.081c2.996-6.013,7.914-15.935,10.826-21.988c1.899-3.952,7.563-10.531,5.045-14.847
			c-2.535-4.343-8.588-1.454-11.658,2.674c-4.879,6.559-28.75,42.543-28.75,42.543c4.535-9.6,9.069-19.198,13.604-28.798
			c6.891-14.59,10.178-21.546,9.203-19.481c2.01-4.257,5.923-9.955,3.535-14.864c-2.421-4.978-9.431-5.488-12.339-0.748
			c-3.319,5.407-28.687,53.418-28.687,53.418s15.88-41.209,17.909-45.945c2.479-5.783,1.015-10.824-2.642-10.796
			c-5.315,0.041-7.827,5.926-9.91,9.928c0.387-0.563,0.774-1.125,1.161-1.688c-4.969,6.625-8.311,15.33-12.466,22.52
			c-4.857,8.403-9.886,16.707-15.081,24.905c1.021-8.492,4.429-16.447,8.651-23.813c2.548-4.443,13.155-15.354,11.343-20.718
			c-1.56-4.618-13.193,4.06-19.959,13.531c-3.687,5.163-13.352,19.239-16.009,29.14c-2.658,9.9-21.276,43.627-26.248,53.023
			c-4.971,9.395-10.942,25.989-10.942,25.989L96.214,392.593z"/>
		
			<line clip-path="url(#SVGID_32_)" fill="none" stroke="#1A2E35" stroke-miterlimit="10" x1="127.56" y1="297.549" x2="122.973" y2="306.814"/>
		
			<line clip-path="url(#SVGID_32_)" fill="none" stroke="#1A2E35" stroke-miterlimit="10" x1="142.244" y1="308.022" x2="138.666" y2="312.66"/>
		
			<line clip-path="url(#SVGID_32_)" fill="none" stroke="#1A2E35" stroke-miterlimit="10" x1="155.42" y1="326.722" x2="150.823" y2="333.42"/>
		
			<line clip-path="url(#SVGID_32_)" fill="none" stroke="#1A2E35" stroke-miterlimit="10" x1="131.64" y1="322.321" x2="131.271" y2="326.305"/>
		
			<line clip-path="url(#SVGID_32_)" fill="none" stroke="#1A2E35" stroke-miterlimit="10" x1="120.18" y1="315.046" x2="120.195" y2="318.9"/>
		
			<line clip-path="url(#SVGID_32_)" fill="none" stroke="#1A2E35" stroke-miterlimit="10" x1="103.322" y1="307.021" x2="104.247" y2="313.568"/>
		<path clip-path="url(#SVGID_32_)" fill="#FFFFFF" d="M110.397,383.539c0,0-9.576-11.724-27.973-16.744
			c-18.398-5.021-32.63-4.911-32.63-4.911l-9.578,25.605c0,0,33.993,8.291,45.248,16.063c11.256,7.771,14.2,11.822,14.2,11.822
			L110.397,383.539z"/>
		<path clip-path="url(#SVGID_32_)" fill="none" stroke="#1A2E35" stroke-miterlimit="10" d="M110.397,383.539
			c0,0-9.576-11.724-27.973-16.744c-18.398-5.021-32.63-4.911-32.63-4.911l-9.578,25.605c0,0,33.993,8.291,45.248,16.063
			c11.256,7.771,14.2,11.822,14.2,11.822L110.397,383.539z"/>
		<path clip-path="url(#SVGID_32_)" fill="#FFFFFF" d="M95.163,438.906c0,0,2.382-8.008,5.742-15.912
			c3.36-7.904-3.011-11.359-3.011-11.359s-9.551-11.34-33.122-19.12c-23.571-7.779-25.512-8.046-30.859-1.172
			c-5.349,6.873-22.558,48.176-22.558,48.176"/>
		<path clip-path="url(#SVGID_32_)" fill="none" stroke="#1A2E35" stroke-miterlimit="10" d="M95.163,438.906
			c0,0,2.382-8.008,5.742-15.912c3.36-7.904-3.011-11.359-3.011-11.359s-9.551-11.34-33.122-19.12
			c-23.571-7.779-25.512-8.046-30.859-1.172c-5.349,6.873-22.558,48.176-22.558,48.176"/>
	</g>
</g>
<circle opacity="0.21" cx="390.112" cy="136.021" r="27.25"/>
<circle opacity="0.21" cx="390.112" cy="136.021" r="21.75"/>
<g opacity="0.7">
	<g>
		<path fill="#FFFFFF" d="M388.937,139.208c1.049,0.265,2.039,0.117,2.972-0.44c0.937-0.558,1.535-1.361,1.799-2.408l1.537-6.096
			c0.263-1.048,0.116-2.039-0.441-2.974c-0.559-0.934-1.36-1.533-2.407-1.798c-1.048-0.264-2.039-0.116-2.974,0.441
			c-0.934,0.559-1.533,1.361-1.798,2.409l-1.537,6.096c-0.264,1.048-0.115,2.039,0.441,2.973
			C387.086,138.346,387.891,138.944,388.937,139.208z"/>
		<path fill="#FFFFFF" d="M397.048,135.011c-0.111-0.189-0.272-0.31-0.479-0.361c-0.206-0.053-0.402-0.022-0.593,0.09
			c-0.188,0.113-0.309,0.272-0.361,0.479l-0.384,1.523c-0.37,1.468-1.209,2.594-2.516,3.374c-1.308,0.781-2.695,0.986-4.163,0.616
			c-1.469-0.371-2.593-1.208-3.374-2.515c-0.781-1.308-0.985-2.694-0.615-4.164l0.386-1.524c0.051-0.206,0.02-0.404-0.093-0.592
			c-0.112-0.189-0.273-0.31-0.479-0.362c-0.206-0.052-0.404-0.021-0.595,0.091c-0.186,0.112-0.308,0.272-0.36,0.479l-0.383,1.523
			c-0.442,1.755-0.241,3.429,0.602,5.021c0.844,1.592,2.103,2.701,3.777,3.326l-0.396,1.571l-3.048-0.768
			c-0.206-0.052-0.405-0.021-0.593,0.091c-0.188,0.113-0.309,0.273-0.36,0.479c-0.054,0.206-0.023,0.404,0.091,0.593
			c0.112,0.189,0.271,0.309,0.479,0.361l7.619,1.921c0.207,0.052,0.404,0.021,0.593-0.092c0.189-0.112,0.309-0.272,0.362-0.479
			c0.051-0.206,0.021-0.403-0.092-0.593c-0.112-0.188-0.272-0.308-0.478-0.361l-3.05-0.768l0.396-1.572
			c1.771,0.244,3.404-0.136,4.904-1.14c1.497-1.001,2.467-2.379,2.909-4.134l0.384-1.524
			C397.192,135.397,397.163,135.199,397.048,135.011z"/>
	</g>
</g>
<path opacity="0.24" d="M426.919,98.163c-0.75,3.915-4.343,6.516-8.027,5.811l-39.449-7.559c-3.684-0.705-6.062-4.451-5.311-8.366
	l0.036-0.197c0.751-3.915,4.345-6.515,8.027-5.81l39.451,7.558c3.683,0.707,6.061,4.452,5.31,8.366L426.919,98.163z"/>
<text transform="matrix(1.0812 0.2072 -0.1882 0.9821 379.2339 95.3755)" opacity="0.51" fill="#F6F6F6" font-family="'MyriadPro-Regular'" font-size="13">******</text>
</svg>
